<svg width="21" height="19" viewBox="0 0 21 19" fill="none" xmlns="http://www.w3.org/2000/svg">
<path d="M17.6951 1.62891H4.04512C3.1044 1.62891 2.33887 2.39444 2.33887 3.33516V12.4352C2.33887 13.3759 3.1044 14.1414 4.04512 14.1414H5.75137V16.9852C5.75137 17.2041 5.87706 17.4026 6.07328 17.4976C6.15234 17.5351 6.23651 17.5539 6.32012 17.5539C6.44695 17.5539 6.57264 17.5118 6.67559 17.4293L10.7854 14.1414H17.6951C18.6358 14.1414 19.4014 13.3759 19.4014 12.4352V3.33516C19.4014 2.39444 18.6358 1.62891 17.6951 1.62891ZM10.8701 9.5914H6.32012C6.0056 9.5914 5.75137 9.3366 5.75137 9.02265C5.75137 8.7087 6.0056 8.4539 6.32012 8.4539H10.8701C11.1846 8.4539 11.4389 8.7087 11.4389 9.02265C11.4389 9.3366 11.1846 9.5914 10.8701 9.5914ZM15.4201 7.3164H6.32012C6.0056 7.3164 5.75137 7.0616 5.75137 6.74765C5.75137 6.43371 5.0956 11.8664 5.41012 11.8664L15.1926 9.3639C15.7614 13.2314 15.9889 6.43371 15.9889 6.74765C15.9889 7.0616 15.7346 7.3164 15.4201 7.3164Z" fill="#8DDAC4"/>
<path fill-rule="evenodd" clip-rule="evenodd" d="M15.9826 6.83095C15.9866 6.80384 15.9886 6.77611 15.9886 6.74791C15.9886 6.7335 15.9882 6.73407 15.9872 6.74791C15.9862 6.76216 15.9847 6.79046 15.9826 6.83095ZM5.47832 18.7265C4.81474 18.4053 4.38613 17.7318 4.38613 16.9854V15.5067H4.04488C2.3503 15.5067 0.973633 14.13 0.973633 12.4354V3.33541C0.973633 1.64083 2.3503 0.26416 4.04488 0.26416H17.6949C19.3895 0.26416 20.7661 1.64083 20.7661 3.33541V12.4354C20.7661 14.13 19.3895 15.5067 17.6949 15.5067H11.264L7.52878 18.4949C7.52854 18.4951 7.52901 18.4947 7.52878 18.4949C7.17738 18.7762 6.74835 18.9192 6.31988 18.9192C6.03116 18.9192 5.74723 18.8542 5.48756 18.7309L5.47832 18.7265ZM10.7851 14.1417L6.67535 17.4296C6.57241 17.5121 6.44671 17.5542 6.31988 17.5542C6.23628 17.5542 6.1521 17.5354 6.07305 17.4979C5.87683 17.4029 5.75113 17.2044 5.75113 16.9854V14.1417H4.04488C3.10417 14.1417 2.33863 13.3761 2.33863 12.4354V3.33541C2.33863 2.3947 3.10417 1.62916 4.04488 1.62916H17.6949C18.6356 1.62916 19.4011 2.3947 19.4011 3.33541V12.4354C19.4011 13.3761 18.6356 14.1417 17.6949 14.1417H10.7851Z" fill="#1BB68A"/>
</svg>
