<svg width="24" height="24" viewBox="0 0 24 24" fill="none" xmlns="http://www.w3.org/2000/svg">
<path fill-rule="evenodd" clip-rule="evenodd" d="M20.208 12.3079C20.208 11.7017 20.1536 11.1187 20.0525 10.5591H12V13.8664H16.6015C16.4032 14.9351 15.8009 15.8406 14.8953 16.4469V18.5922H17.6585C19.2753 17.1037 20.208 14.9118 20.208 12.3079Z" fill="#4285F4"/>
<path fill-rule="evenodd" clip-rule="evenodd" d="M12 20.6633C14.3085 20.6633 16.2439 19.8977 17.6585 18.5919L14.8953 16.4466C14.1297 16.9596 13.1503 17.2627 12 17.2627C9.77308 17.2627 7.88819 15.7587 7.21585 13.7378H4.35938V15.953C5.76624 18.7473 8.65769 20.6633 12 20.6633Z" fill="#34A853"/>
<path fill-rule="evenodd" clip-rule="evenodd" d="M7.21608 13.7377C7.04508 13.2247 6.94792 12.6767 6.94792 12.1132C6.94792 11.5496 7.04508 11.0017 7.21608 10.4887V8.27344H4.3596C3.78054 9.42769 3.4502 10.7335 3.4502 12.1132C3.4502 13.4928 3.78054 14.7986 4.3596 15.9529L7.21608 13.7377Z" fill="#FBBC05"/>
<path fill-rule="evenodd" clip-rule="evenodd" d="M12 6.96404C13.2553 6.96404 14.3823 7.39543 15.2684 8.24266L17.7207 5.79036C16.24 4.4107 14.3046 3.56348 12 3.56348C8.65769 3.56348 5.76624 5.47945 4.35938 8.27375L7.21585 10.489C7.88819 8.46807 9.77308 6.96404 12 6.96404Z" fill="#EA4335"/>
</svg>
