<svg width="21" height="21" viewBox="0 0 21 21" fill="none" xmlns="http://www.w3.org/2000/svg">
<path fill-rule="evenodd" clip-rule="evenodd" d="M2.28845 8.26416H5.30405C6.03765 8.26416 6.63786 8.86442 6.63786 9.59802V18.5632C6.63786 19.2968 6.03765 19.897 5.30405 19.897H2.28845C1.5548 19.897 0.95459 19.2968 0.95459 18.5632V9.59802C0.95459 8.86442 1.5548 8.26416 2.28845 8.26416Z" fill="#1BB68A" fill-opacity="0.5"/>
<path fill-rule="evenodd" clip-rule="evenodd" d="M17.7928 8.6606H13.97C16.731 5.06024 17.0067 1.28564 13.8386 1.28564C12.6868 4.07954 9.4562 8.26448 6.6377 10.5087V17.2597C6.6377 18.7098 7.73696 19.8967 9.08046 19.8967H16.6736C18.0172 19.8967 18.8496 18.6812 19.1164 17.2597L20.2356 11.2977C20.5025 9.87621 19.1363 8.6606 17.7928 8.6606Z" fill="#1BB68A" fill-opacity="0.5"/>
<path fill-rule="evenodd" clip-rule="evenodd" d="M19.5434 11.168L18.4244 17.13C18.2371 18.1272 17.6791 19.1926 16.6736 19.1926H9.08045C8.12189 19.1926 7.34219 18.3257 7.34219 17.26H7.34197V10.844C9.99719 8.63996 12.9707 4.85431 14.2836 2.02498C14.9835 2.14344 15.1758 2.5334 15.2467 2.67648C15.7037 3.60317 15.3247 5.7372 13.4108 8.23217C13.2481 8.44516 13.2198 8.7321 13.3383 8.9726C13.4572 9.21305 13.7019 9.36524 13.9701 9.36524H17.793C18.3126 9.36524 18.8737 9.63735 19.2229 10.0583C19.4198 10.2953 19.635 10.6803 19.5434 11.168ZM5.93327 18.5633C5.93327 18.9102 5.65082 19.1927 5.30392 19.1927H2.28828C1.94111 19.1927 1.6587 18.9102 1.6587 18.5633V9.59804C1.6587 9.25091 1.94115 8.96868 2.28828 8.96868H5.30392C5.65086 8.96868 5.93327 9.25091 5.93327 9.59804V18.5633ZM20.3072 9.15868C19.6917 8.41725 18.7286 7.95659 17.793 7.95659H15.318C15.8748 7.06894 16.2939 6.17576 16.5493 5.32531C16.9394 4.02724 16.9258 2.89585 16.5102 2.05329C16.0417 1.10423 15.0931 0.581543 13.8384 0.581543C13.5531 0.581543 13.2961 0.753762 13.1873 1.01759C12.2106 3.38671 9.66288 6.79191 7.26233 9.03524C7.01734 8.18423 6.23245 7.5598 5.30387 7.5598H2.28828C1.16432 7.5598 0.25 8.47412 0.25 9.59804V18.5633C0.25 19.6871 1.16432 20.6016 2.28828 20.6016H5.30392C5.99138 20.6016 6.60009 20.259 6.96936 19.7358C7.52806 20.2734 8.26888 20.6016 9.08041 20.6016H16.6735C17.513 20.6016 18.2604 20.2441 18.8354 19.568C19.3091 19.0103 19.6459 18.2573 19.8089 17.3899L20.9279 11.428C21.078 10.628 20.8576 9.8222 20.3072 9.15868Z" fill="#1BB68A"/>
</svg>
