<svg width="203" height="69" viewBox="0 0 203 69" fill="none" xmlns="http://www.w3.org/2000/svg">
<path d="M97.6159 57.762H85.3032V60.8333H93.4539C92.5868 63.535 90.2502 65.1642 87.3796 65.1642C83.5279 65.1642 80.881 62.2116 80.881 58.3324C80.881 54.4533 83.5827 51.5508 87.3796 51.5508C89.7162 51.5508 91.4824 52.4499 93.1435 54.4214L95.9867 52.2856C93.9604 49.5337 91.0671 48.1235 87.3522 48.1235C81.3647 48.1235 77.0566 52.4271 77.0566 58.3324C77.0566 64.2378 81.3282 68.5915 87.407 68.5915C93.4858 68.5915 97.6433 64.3473 97.6433 58.3553C97.6433 58.0814 97.6433 57.8213 97.6114 57.762H97.6159Z" fill="white"/>
<path d="M112.973 48.5112V60.4634C112.973 63.1925 111.12 65.1595 108.56 65.1595C106 65.1595 104.147 63.1925 104.147 60.4634V48.5112H100.4V60.4634C100.4 65.1914 103.836 68.5868 108.56 68.5868C113.283 68.5868 116.72 65.1914 116.72 60.4634V48.5112H112.973Z" fill="white"/>
<path d="M121.023 48.5112V68.1988H124.761V48.5112H121.023Z" fill="white"/>
<path d="M135.645 48.5112H129.146V68.1988H135.645C141.326 68.1988 145.429 64.0687 145.429 58.355C145.429 52.6413 141.326 48.5112 135.645 48.5112ZM135.645 64.913H132.884V51.8062H135.645C139.049 51.8062 141.609 54.5581 141.609 58.387C141.609 62.2159 139.049 64.9084 135.645 64.9084V64.913Z" fill="white"/>
<path d="M152.352 64.9086V59.4779H161.238V56.2148H152.352V51.7698H160.758V48.5068H148.605V68.1944H161.603V64.9086H152.352Z" fill="white"/>
<path d="M83.5602 0.479004H77.0615V20.1666H83.5602C89.2419 20.1666 93.3447 16.0274 93.3447 10.3228C93.3447 4.61824 89.2419 0.479004 83.5602 0.479004ZM83.5602 16.8717H80.7992V3.76484H83.5602C86.9647 3.76484 89.5157 6.52585 89.5157 10.3456C89.5157 14.1654 86.9647 16.8671 83.5602 16.8671V16.8717Z" fill="white"/>
<path d="M100.258 11.4455H109.153V8.18702H100.258V3.73745H108.669V0.479004H96.5254V20.1621H109.518V16.8671H100.258V11.4455Z" fill="white"/>
<path d="M126.787 12.3493L113.114 0V20.1622H116.861V8.29216L130.525 20.6414V0.479178H126.787V12.3493Z" fill="white"/>
<path d="M147.342 0.479004H133.025V3.73745H138.315V20.1621H142.061V3.73745H147.342V0.479004Z" fill="white"/>
<path d="M146.274 20.1622H149.902L151.869 16.1645H160.535L162.502 20.1622H166.098L156.195 0L146.269 20.1622H146.274ZM153.366 13.189L156.2 7.44788L159.043 13.189H153.361H153.366Z" fill="white"/>
<path d="M172.209 16.8671V0.479004H168.471V20.1621H181.491V16.8671H172.209Z" fill="white"/>
<path d="M90.7292 36.0986L77.061 23.7539V43.9161H80.8032V32.0461L94.4668 44.3953V24.2285H90.7292V36.0986Z" fill="white"/>
<path d="M111.343 36.1807C111.343 38.9098 109.486 40.8767 106.925 40.8767C104.365 40.8767 102.508 38.9098 102.508 36.1807V24.2285H98.7656V36.1807C98.7656 40.9041 102.197 44.3086 106.921 44.3086C111.644 44.3086 115.076 40.9041 115.076 36.1807V24.2285H111.334V36.1807H111.343Z" fill="white"/>
<path d="M128.699 35.5327C131.058 34.7477 132.61 32.8401 132.61 30.1932C132.61 26.5377 129.881 24.2285 126.111 24.2285H119.389V43.9161H123.136V35.9343H124.596L130.812 43.9161H135.225L128.704 35.5327H128.699ZM126.111 32.6987H123.131V27.4915H126.111C127.631 27.4915 128.923 28.532 128.923 30.1932C128.923 31.7357 127.631 32.6941 126.111 32.6941V32.6987Z" fill="white"/>
<path d="M140.902 29.1526C140.902 27.9432 141.97 27.1263 143.603 27.1263C144.982 27.1263 146.812 27.6603 147.907 28.5046L149.481 25.8348C148.217 24.7669 145.826 23.8359 143.462 23.8359C139.61 23.8359 137.077 26.1132 137.077 29.5998C137.077 36.4316 146.529 34.7203 146.529 38.6541C146.529 40.0597 145.292 40.9907 143.462 40.9907C141.833 40.9907 140.286 40.2605 138.205 38.8549L136.292 41.5247C138.319 43.1265 140.765 44.3085 143.521 44.3085C147.656 44.3085 150.353 41.8076 150.353 38.0654C150.353 31.1195 140.902 32.4111 140.902 29.1526Z" fill="white"/>
<path d="M157.331 24.2285H153.589V43.9161H157.331V24.2285Z" fill="white"/>
<path d="M175.412 36.0986L161.744 23.7539V43.9161H165.486V32.0461L179.154 44.3953V24.2285H175.412V36.0986Z" fill="white"/>
<path d="M202.972 33.4837H190.655V36.5504H198.81C197.939 39.2521 195.607 40.8813 192.736 40.8813C188.884 40.8813 186.237 37.9287 186.237 34.0495C186.237 30.1704 188.939 27.2725 192.736 27.2725C195.068 27.2725 196.843 28.1716 198.5 30.1431L201.339 28.0073C199.312 25.2508 196.419 23.8452 192.704 23.8452C186.712 23.8452 182.413 28.1487 182.413 34.0541C182.413 39.9595 186.689 44.3178 192.763 44.3178C198.838 44.3178 203 40.0736 203 34.0815C203 33.7985 203 33.5475 202.972 33.4928V33.4837Z" fill="white"/>
<path d="M64.1599 29.0476C63.8404 30.3939 63.4251 31.9546 62.9414 33.6204C61.9465 33.1731 60.8604 32.9358 59.7651 32.9358H53.1797V32.16C53.1797 30.0881 52.34 28.0573 50.8705 26.5832C49.4056 25.1183 47.3702 24.2786 45.2983 24.2786H26.1218C24.018 24.2786 22.0374 25.1 20.545 26.5878C19.0801 28.0573 18.2404 30.0881 18.2404 32.16V48.1419C18.2404 51.1083 19.9381 53.8009 22.5028 55.138V57.721C22.5028 58.5744 22.7995 59.4005 23.3471 60.0531C23.7944 60.587 24.3739 60.9749 25.0265 61.1757C24.2644 61.5408 23.4384 61.8055 22.5257 61.9515C20.1161 62.3349 17.5604 61.8055 15.5022 60.4912C10.4502 57.2692 8.49699 51.2224 6.64414 45.851C4.71828 40.297 2.60074 34.7841 1.24534 29.0522C-0.402142 22.088 -1.09582 13.6042 3.57737 7.55276C7.4154 2.57838 13.7726 0.0272963 19.9883 0.547553C23.2467 0.821372 25.9758 2.19503 28.9969 3.28575C32.5885 4.58183 36.3901 5.55388 40.219 5.73187C40.8807 5.76381 41.5424 5.76837 42.2087 5.74099C42.2087 5.74099 35.7922 4.34907 32.8624 0.999351C32.8624 0.999351 37.4716 1.58351 44.1483 0.670774C50.8203 -0.241957 57.6567 2.13114 61.8416 7.55276C66.5102 13.6042 65.8211 22.088 64.169 29.0522L64.1599 29.0476Z" fill="white"/>
<path fill-rule="evenodd" clip-rule="evenodd" d="M33.0496 54.0519C33.0131 54.0701 32.9765 54.093 32.9492 54.1158L27.1488 58.9487C26.4733 59.5146 25.4648 59.4279 24.8989 58.7524C24.657 58.4649 24.5247 58.0998 24.5247 57.7256V53.7735C22.0055 53.057 20.2668 50.7569 20.2622 48.1374V32.16C20.2622 30.6084 20.8783 29.1161 21.9781 28.0162C23.078 26.9164 24.5703 26.3003 26.1219 26.3003H45.2984C46.8501 26.3003 48.3424 26.9164 49.4422 28.0162C50.5375 29.1161 51.1582 30.6084 51.1582 32.16V32.694H41.0405C36.6275 32.694 33.0541 36.2719 33.0496 40.6849V54.0564V54.0519Z" fill="white"/>
<path fill-rule="evenodd" clip-rule="evenodd" d="M35.0256 40.735C35.0256 39.2016 35.6371 37.7275 36.7187 36.6414C37.8048 35.5552 39.2789 34.9482 40.8123 34.9482H59.7651C61.2985 34.9482 62.7726 35.5598 63.8587 36.6414C64.9449 37.7275 65.5519 39.2016 65.5519 40.735V56.5298C65.5519 59.1174 63.8314 61.3901 61.3396 62.102V66.0039C61.3396 66.8756 60.6368 67.583 59.7651 67.583C59.3955 67.583 59.035 67.4552 58.7474 67.2133L53.0155 62.4397C52.9197 62.3621 52.801 62.3165 52.6778 62.3165H40.8077C39.2743 62.3165 37.8003 61.705 36.7141 60.6234C35.628 59.5372 35.021 58.0632 35.021 56.5298V40.735H35.0256ZM45.0291 46.5262H51.3452C52.2169 46.5262 52.9242 45.8189 52.9242 44.9472C52.9242 44.0756 52.2169 43.3682 51.3452 43.3682H45.0291C44.1574 43.3682 43.4501 44.0756 43.4501 44.9472C43.4501 45.8189 44.1574 46.5262 45.0291 46.5262ZM45.0291 52.8423H55.5574C56.4291 52.8423 57.1365 52.135 57.1365 51.2633C57.1365 50.3917 56.4291 49.6843 55.5574 49.6843H45.0291C44.1574 49.6843 43.4501 50.3917 43.4501 51.2633C43.4501 52.135 44.1574 52.8423 45.0291 52.8423Z" fill="white"/>
</svg>
